<?xml version="1.0" encoding="UTF-8" standalone="no"?>
<svg
   height="24"
   viewBox="0 -960 960 960"
   width="24"
   version="1.1"
   id="svg4"
   sodipodi:docname="theme.svg"
   inkscape:version="1.2.2 (b0a8486541, 2022-12-01)"
   xmlns:inkscape="http://www.inkscape.org/namespaces/inkscape"
   xmlns:sodipodi="http://sodipodi.sourceforge.net/DTD/sodipodi-0.dtd"
   xmlns="http://www.w3.org/2000/svg"
   xmlns:svg="http://www.w3.org/2000/svg">
  <defs
     id="defs8" />
  <sodipodi:namedview
     id="namedview6"
     pagecolor="#ffffff"
     bordercolor="#000000"
     borderopacity="0.25"
     inkscape:showpageshadow="2"
     inkscape:pageopacity="0.0"
     inkscape:pagecheckerboard="0"
     inkscape:deskcolor="#d1d1d1"
     showgrid="false"
     inkscape:zoom="35.375"
     inkscape:cx="12"
     inkscape:cy="12.014134"
     inkscape:window-width="1920"
     inkscape:window-height="1023"
     inkscape:window-x="0"
     inkscape:window-y="28"
     inkscape:window-maximized="1"
     inkscape:current-layer="svg4" />
  <path
     d="m 471.94247,-131.06052 q -147.16677,0 -250.1835,-103.01673 -103.01674,-103.01674 -103.01674,-250.18351 0,-147.16677 103.01674,-250.18351 103.01673,-103.01674 250.1835,-103.01674 13.73557,0 26.98058,0.98112 13.24501,0.98111 25.99946,2.94333 -40.22558,28.45224 -64.26282,74.07394 -24.03724,45.6217 -24.03724,98.60174 0,88.30006 61.81004,150.1101 61.81004,61.81004 150.1101,61.81004 53.96115,0 99.0923,-24.03724 45.13114,-24.03723 73.58338,-64.26282 1.96222,12.75446 2.94334,25.99946 0.98111,13.24501 0.98111,26.98058 0,147.16677 -103.01674,250.18351 -103.01674,103.01673 -250.18351,103.01673 z m 0,-78.48894 q 86.33784,0 155.01567,-47.58392 68.67782,-47.58392 100.0734,-124.11064 -19.62224,4.90556 -39.24447,7.84889 -19.62224,2.94334 -39.24448,2.94334 -120.67675,0 -205.54292,-84.86617 -84.86617,-84.86617 -84.86617,-205.54292 0,-19.62224 2.94334,-39.24447 2.94334,-19.62224 7.84889,-39.24448 -76.52672,31.39558 -124.11064,100.07341 -47.58392,68.67782 -47.58392,155.01566 0,113.80897 80.45117,194.26013 80.45116,80.45117 194.26013,80.45117 z m -9.81112,-264.90018 z"
     id="path2"
     style="fill:#003f00;fill-opacity:1;stroke-width:0.981112" />
  <path
     d="m 498.21319,-836.47883 q 146.75753,10.96741 241.81062,121.37489 95.05308,110.40745 84.08568,257.165 -10.96742,146.75752 -121.37489,241.8106 -110.40745,95.05309 -257.165,84.08567 -13.69736,-1.02363 -26.83243,-2.98907 -13.13506,-1.96544 -25.70781,-4.87273 42.23409,-25.37536 69.60438,-69.07885 27.37029,-43.70349 31.31856,-96.5362 6.58046,-88.05453 -50.45139,-154.299 -57.03186,-66.24449 -145.08637,-72.82493 -53.81109,-4.0214 -100.60808,16.58566 -46.797,20.60708 -78.16787,58.60043 -1.00627,-12.86522 -0.99757,-26.14651 0.01,-13.28131 1.0323,-26.97867 10.96742,-146.75753 121.37487,-241.81062 110.40748,-95.05307 257.165,-84.08567 z m -5.84929,78.27068 q -86.09774,-6.43421 -158.13073,35.89927 -72.03297,42.33347 -109.0443,116.30767 19.93325,-3.4296 39.72028,-4.90242 19.787,-1.47283 39.35469,-0.01 120.34117,8.99328 198.6468,99.94799 78.30563,90.95474 69.31235,211.29591 -1.46231,19.56766 -5.85979,38.91599 -4.39746,19.34833 -10.75171,38.55042 78.65363,-25.60522 131.22337,-90.54595 52.56971,-64.94071 59.00394,-151.03847 8.48146,-113.49248 -65.75046,-199.71545 -74.23194,-86.22299 -187.72444,-94.70444 z m -9.9575,264.89473 z"
     id="path323"
     style="fill:#ff0000;fill-opacity:1;stroke-width:0.981112" />
</svg>
